<svg xmlns="http://www.w3.org/2000/svg" viewBox="0 0 32 32" width="32" height="32" fill="none">
  <rect width="32" height="32" rx="8" fill="#0B0D13" stroke="#262D3D" stroke-width="1.5"/>
  <path d="M12 9c-2 0-3 1.5-3 3.5v1c0 1.2-.6 2-2 2.5 1.4.5 2 1.3 2 2.5v1c0 2 1 3.5 3 3.5" stroke="#38BDF8" stroke-width="2" stroke-linecap="round" stroke-linejoin="round"/>
  <path d="M20 9c2 0 3 1.5 3 3.5v1c0 1.2.6 2 2 2.5-1.4.5-2 1.3-2 2.5v1c0 2-1 3.5-3 3.5" stroke="#38BDF8" stroke-width="2" stroke-linecap="round" stroke-linejoin="round"/>
</svg>
